<?xml version="1.0" encoding="UTF-8" standalone="no"?>
<!-- Created with Inkscape (http://www.inkscape.org/) -->

<svg
   xmlns:dc="http://purl.org/dc/elements/1.1/"
   xmlns:cc="http://creativecommons.org/ns#"
   xmlns:rdf="http://www.w3.org/1999/02/22-rdf-syntax-ns#"
   xmlns:svg="http://www.w3.org/2000/svg"
   xmlns="http://www.w3.org/2000/svg"
   xmlns:sodipodi="http://sodipodi.sourceforge.net/DTD/sodipodi-0.dtd"
   xmlns:inkscape="http://www.inkscape.org/namespaces/inkscape"
   width="826.6792"
   height="382.02826"
   viewBox="0 0 218.72554 101.07831"
   version="1.1"
   id="svg8"
   inkscape:version="0.92.3 (2405546, 2018-03-11)"
   sodipodi:docname="vector_logo.svg">
  <defs
     id="defs2">
    <clipPath
       id="clipPath3748"
       clipPathUnits="userSpaceOnUse">
      <path
         inkscape:connector-curvature="0"
         id="path3746"
         d="M 0,396.85 H 623.62 V 0 H 0 Z" />
    </clipPath>
    <clipPath
       id="clipPath3768"
       clipPathUnits="userSpaceOnUse">
      <path
         inkscape:connector-curvature="0"
         id="path3766"
         d="M 0,396.85 H 623.62 V 0 H 0 Z" />
    </clipPath>
  </defs>
  <sodipodi:namedview
     id="base"
     pagecolor="#ffffff"
     bordercolor="#666666"
     borderopacity="1.0"
     inkscape:pageopacity="0.0"
     inkscape:pageshadow="2"
     inkscape:zoom="1.4"
     inkscape:cx="350.08841"
     inkscape:cy="185.54978"
     inkscape:document-units="mm"
     inkscape:current-layer="layer2"
     showgrid="true"
     units="px"
     inkscape:window-width="1920"
     inkscape:window-height="1017"
     inkscape:window-x="0"
     inkscape:window-y="30"
     inkscape:window-maximized="1"
     fit-margin-top="10"
     fit-margin-left="10"
     fit-margin-right="10"
     fit-margin-bottom="10">
    <inkscape:grid
       type="xygrid"
       id="grid3896"
       snapvisiblegridlinesonly="false"
       originx="-0.8819481"
       originy="-169.3555" />
  </sodipodi:namedview>
  <metadata
     id="metadata5">
    <rdf:RDF>
      <cc:Work
         rdf:about="">
        <dc:format>image/svg+xml</dc:format>
        <dc:type
           rdf:resource="http://purl.org/dc/dcmitype/StillImage" />
        <dc:title></dc:title>
      </cc:Work>
    </rdf:RDF>
  </metadata>
  <g
     inkscape:groupmode="layer"
     id="layer2"
     inkscape:label="Layer 2"
     transform="translate(-0.88194809,-26.566184)"
     style="display:inline">
    <path
       inkscape:connector-curvature="0"
       id="path3816-6"
       style="display:inline;opacity:1;fill:none;stroke:#110f0e;stroke-width:0.34197482;stroke-linecap:butt;stroke-linejoin:miter;stroke-miterlimit:10;stroke-dasharray:none;stroke-opacity:1"
       d="m 144.97001,37.131146 c -0.0775,-0.253268 -0.17829,-0.455154 -0.30072,-0.606319 -0.12219,-0.150833 -0.27487,-0.260561 -0.45793,-0.328519 -0.1834,-0.06796 -0.41474,-0.102103 -0.69379,-0.102103 -0.27199,0 -0.58381,0.02122 -0.93473,0.06265 -0.35164,0.04144 -0.74858,0.09978 -1.19166,0.175365 -0.44273,0.07558 -0.94173,0.170061 -1.49651,0.283103 -0.55491,0.113374 -1.1757,0.241997 -1.86247,0.385207 l -0.23805,0.99716 c 0.42965,-0.06 0.81024,-0.105418 1.14237,-0.135917 0.33236,-0.03017 0.62684,-0.04542 0.88331,-0.04542 0.36301,0 0.64515,0.03414 0.8469,0.102102 0.2021,0.06796 0.34222,0.175365 0.42069,0.323215 0.0785,0.146856 0.10038,0.335813 0.0654,0.566538 -0.0345,0.230395 -0.11111,0.507862 -0.22923,0.832404 -0.22008,0.60466 -0.48229,1.314408 -0.78664,2.130236 -0.30469,0.815828 -0.64506,1.699614 -1.02146,2.651366 -0.37675,0.95176 -0.78525,1.95488 -1.22502,3.00807 -0.44084,1.05418 -0.90429,2.12493 -1.39048,3.21259 -0.48654,1.08766 -0.99682,2.17366 -1.53142,3.25768 -0.53412,1.08368 -1.08076,2.13388 -1.63931,3.14993 -0.55843,1.01572 -1.12917,1.97708 -1.71235,2.88341 -0.58293,0.90666 -1.17012,1.72613 -1.76168,2.45875 l 0.11748,0.11338 c 0.14057,0.007 0.25565,0.0129 0.34486,0.0169 0.0897,0.004 0.16411,0.006 0.22479,0.006 h 0.30585 c 0.33232,0 0.62503,-0.0152 0.87754,-0.0451 0.25276,-0.0305 0.486,-0.10045 0.69974,-0.20984 0.21326,-0.10907 0.41845,-0.27349 0.61545,-0.49295 0.19676,-0.21879 0.40305,-0.51515 0.61829,-0.88942 0.21536,-0.3736 0.45321,-0.84003 0.7132,-1.39927 0.25975,-0.55858 0.56093,-1.23485 0.90258,-2.02814 0.48512,-1.12544 0.99826,-2.34338 1.53943,-3.65381 0.54093,-1.31076 1.10359,-2.69479 1.68727,-4.15307 0.5831,-1.45761 1.18017,-2.97788 1.79018,-4.56081 0.60999,-1.581942 1.22616,-3.207962 1.84908,-4.877741 0.1046,0.438578 0.23185,0.970971 0.38151,1.597842 0.14967,0.626872 0.31647,1.320044 0.50102,2.078866 0.18465,0.759473 0.38224,1.569663 0.59418,2.430573 0.21147,0.86125 0.4299,1.74503 0.6553,2.65136 0.22492,0.90666 0.45306,1.82095 0.68467,2.74219 0.23078,0.92158 0.45927,1.82426 0.68546,2.70805 0.22584,0.88378 0.44541,1.73342 0.65824,2.54925 0.21282,0.81582 0.41331,1.56767 0.60133,2.25488 0.18756,0.68753 0.36078,1.29717 0.51813,1.83022 0.15736,0.53206 0.2916,0.95705 0.40297,1.2743 l 0.19558,0.0229 1.44818,-0.18133 c 0.26666,-0.73262 0.52983,-1.44502 0.78869,-2.13587 0.25945,-0.69152 0.51765,-1.37475 0.77508,-2.05101 0.25683,-0.6756 0.51602,-1.35186 0.77757,-2.0278 0.26083,-0.67593 0.5283,-1.3691 0.80203,-2.07951 0.31698,-0.80787 0.6793,-1.72581 1.08743,-2.75313 0.40779,-1.02733 0.84866,-2.09808 1.32192,-3.21226 0.47362,-1.11418 0.97472,-2.23798 1.5046,-3.37105 0.52918,-1.133091 1.07466,-2.211137 1.63646,-3.235149 0.56085,-1.023349 1.12861,-1.954208 1.70151,-2.792578 0.57372,-0.838702 1.1401,-1.518614 1.70019,-2.039736 l 0.0413,-0.113374 c -0.46435,-0.218792 -0.94934,-0.328519 -1.45558,-0.328519 -0.21131,0 -0.42203,0.02453 -0.63298,0.07392 -0.21047,0.04906 -0.41881,0.133927 -0.625,0.254594 -0.20679,0.12133 -0.40842,0.281777 -0.60606,0.481674 -0.19741,0.200227 -0.38517,0.451506 -0.56318,0.753505 -0.21212,0.355039 -0.45019,0.806546 -0.7136,1.353857 -0.26401,0.547974 -0.56237,1.212637 -0.89591,1.99432 -0.33367,0.782015 -0.70486,1.692321 -1.11286,2.730915 -0.40836,1.038611 -0.86713,2.226391 -1.37632,3.563341 -0.50954,1.33695 -1.07021,2.83666 -1.6827,4.49816 -0.61239,1.66216 -1.287,3.50499 -2.02385,5.52947 -0.16664,-0.55891 -0.34951,-1.19341 -0.54791,-1.90349 -0.19875,-0.71007 -0.40503,-1.4712 -0.6193,-2.28305 -0.21428,-0.81185 -0.43257,-1.66017 -0.65488,-2.54396 -0.22196,-0.88378 -0.44581,-1.77884 -0.67085,-2.68517 -0.22563,-0.90666 -0.44471,-1.80901 -0.6576,-2.70804 -0.213,-0.89871 -0.41544,-1.769243 -0.6072,-2.611923 -0.19201,-0.842016 -0.37088,-1.642595 -0.53648,-2.402068 -0.16585,-0.758809 -0.30964,-1.448335 -0.43127,-2.067913 -0.0693,-0.369957 -0.14328,-0.681238 -0.22078,-0.934506 z" />
    <path
       inkscape:connector-curvature="0"
       id="path3826-7"
       style="display:inline;opacity:1;fill:none;stroke:#110f0e;stroke-width:0.34197482;stroke-linecap:butt;stroke-linejoin:miter;stroke-miterlimit:10;stroke-dasharray:none;stroke-opacity:1"
       d="m 160.88718,54.334854 c 0.47449,-0.64941 1.00061,-1.36314 1.57848,-2.14151 1.48785,-0.0829 2.92261,-0.14884 4.30408,-0.19823 1.38134,-0.0491 2.77346,-0.0812 4.17637,-0.0965 -0.21628,1.46557 -0.3821,2.7518 -0.49804,3.85835 -0.1156,1.10656 -0.18297,2.06029 -0.20272,2.86087 -0.0192,0.80091 0.008,1.46558 0.0845,1.99432 0.0757,0.52875 0.19818,0.95009 0.36744,1.26336 0.16926,0.31327 0.38347,0.53405 0.64251,0.66267 0.25917,0.1283 0.56243,0.1926 0.90992,0.1926 0.61171,0 1.35571,-0.11337 2.23117,-0.33978 0.87592,-0.22675 1.82593,-0.55527 2.85156,-0.98589 l 0.0211,-0.92921 c -0.35877,0.11338 -0.68119,0.20056 -0.96738,0.2609 -0.28654,0.0603 -0.55787,0.0905 -0.81505,0.0905 -0.39264,0 -0.73165,-0.064 -1.01751,-0.19261 -0.28562,-0.12829 -0.5186,-0.3547 -0.69833,-0.67991 -0.18068,-0.32454 -0.30697,-0.77041 -0.38016,-1.33695 -0.0735,-0.56654 -0.091,-1.28623 -0.0529,-2.15841 0.0379,-0.87285 0.12757,-1.91874 0.26973,-3.139 0.1418,-1.21927 0.34116,-2.64904 0.59809,-4.28832 0.25645,-1.63895 0.56805,-3.50696 0.93432,-5.602717 0.36663,-2.09676 0.7886,-4.45507 1.26674,-7.07626 -0.20352,-0.10575 -0.40358,-0.177354 -0.60137,-0.215477 -0.19804,-0.03746 -0.40635,-0.05636 -0.62543,-0.05636 -0.15099,0 -0.30996,0.01127 -0.47691,0.03381 -0.16696,0.02254 -0.33147,0.06067 -0.49459,0.113374 -0.16253,0.05304 -0.32161,0.126634 -0.477,0.221112 -0.15504,0.09448 -0.29666,0.213156 -0.4244,0.356697 -1.38974,1.556074 -3.04605,3.491714 -4.9687,5.807264 -1.92322,2.315207 -4.12789,4.990767 -6.61564,8.027337 -0.48621,0.008 -0.78456,0.16276 -0.89448,0.46476 -0.0606,0.16642 -0.0567,0.37394 0.0113,0.62323 -1.3523,1.63928 -2.75985,3.35381 -4.2235,5.14392 -1.46376,1.79045 -3.00606,3.66775 -4.62747,5.63157 l 0.11796,0.11304 c 0.15562,0.008 0.32938,0.0129 0.52055,0.0169 0.19116,0.004 0.35095,0.006 0.47937,0.006 0.22648,0 0.44384,-0.006 0.65173,-0.0169 0.20813,-0.0116 0.41195,-0.053 0.61205,-0.12498 0.2001,-0.0719 0.40425,-0.18696 0.61291,-0.34542 0.20879,-0.15879 0.42592,-0.38123 0.65153,-0.66864 0.18881,-0.24929 0.39563,-0.52676 0.62012,-0.8324 0.22473,-0.30631 0.48927,-0.67063 0.79457,-1.09363 0.30495,-0.423 0.66137,-0.91959 1.06893,-1.48977 0.40803,-0.57052 0.888,-1.24082 1.44052,-2.01156 0.35504,-0.49858 0.76992,-1.07241 1.24418,-1.72216 z m 6.54779,-3.7788 c -1.2229,0.0189 -2.48983,0.0434 -3.79974,0.0736 1.2859,-1.70691 2.72558,-3.57658 4.31893,-5.60869 1.59323,-2.031777 3.34317,-4.173287 5.25052,-6.424517 h 0.0677 c -0.22367,1.13307 -0.43803,2.25123 -0.64296,3.35414 -0.20528,1.10291 -0.39829,2.162387 -0.57889,3.178117 -0.18108,1.01605 -0.34638,1.97907 -0.49626,2.88904 -0.15047,0.91064 -0.28172,1.7394 -0.39552,2.48727 -1.25968,0.0153 -2.50103,0.0325 -3.72381,0.0511 z" />
    <path
       inkscape:connector-curvature="0"
       id="path3772-5"
       style="display:inline;opacity:1;fill:none;stroke:#110f0e;stroke-width:0.35277775;stroke-linecap:butt;stroke-linejoin:miter;stroke-miterlimit:10;stroke-dasharray:none;stroke-opacity:1"
       d="m 102.39934,104.3536 c -0.55809,0.0416 -0.83714,-0.23741 -0.83714,-0.83714 0,-0.74401 0.98143,-3.31752 2.9457,-7.720536 l 0.248,-0.52705 c -1.46791,0.49601 -2.69769,0.78599 -3.6897,0.86819 2.02529,-2.60456 3.03847,-4.90926 3.03847,-6.91445 0,-1.44639 -0.44485,-2.43875 -1.33315,-2.97638 -0.76517,3.51437 -2.20168,6.90421 -4.309877,10.16987 -1.53,2.35656 -3.26637,4.429126 -5.20912,6.216646 -1.9431,1.78824 -3.43147,2.68217 -4.46475,2.68217 -1.21991,0 -1.82951,-0.82656 -1.82951,-2.48073 0,-3.534476 1.67464,-7.100356 5.0232,-10.696926 4.54696,-4.89902 9.973027,-7.34836 16.277867,-7.34836 1.32257,0 2.68711,0.12418 4.09293,0.37218 0.62019,-1.15746 0.93028,-1.94274 0.93028,-2.35655 0,-0.49601 -0.33091,-0.74401 -0.99237,-0.74401 -4.71275,0 -9.44668,1.33315 -14.200707,3.99979 -4.21676,2.3361 -7.72054,5.31742 -10.51102,8.94504 -2.790474,3.62761 -4.185703,7.002636 -4.185703,10.123306 0,1.84009 0.72319,2.75978 2.170283,2.75978 1.65347,0 3.8915,-1.03364 6.71301,-3.10092 2.82152,-2.06657 5.56542,-4.67113 8.232067,-7.813316 -2.356547,5.105746 -3.586687,8.702316 -3.689697,10.790056 3.761667,-0.93027 6.728177,-2.21156 8.898467,-3.84457 l -0.5581,-0.80645 c -1.32292,0.78599 -2.24296,1.19909 -2.75943,1.24036 z" />
    <path
       inkscape:connector-curvature="0"
       id="path3776-3"
       style="display:inline;opacity:1;fill:none;stroke:#110f0e;stroke-width:0.35277775;stroke-linecap:butt;stroke-linejoin:miter;stroke-miterlimit:10;stroke-dasharray:none;stroke-opacity:1"
       d="m 118.77045,68.417834 -0.46496,0.18591 0.31009,0.89923 c 0.20638,-0.0621 0.36125,-0.11324 0.46496,-0.15487 0.86819,-0.26846 1.4157,-0.40322 1.64324,-0.40322 0.64065,0 0.96132,0.27904 0.96132,0.83714 0,0.70308 -0.889,3.17323 -2.66664,7.41045 l -2.94535,7.06931 c -3.24555,7.7724 -5.29731,12.86757 -6.15491,15.28586 -0.85796,2.418646 -1.28658,4.299656 -1.28658,5.643036 0,1.73637 0.62018,2.60456 1.8602,2.60456 1.55045,0 3.98921,-1.45733 7.31731,-4.37163 l -0.58913,-0.80645 -0.37183,0.27905 c -1.53,1.19909 -2.59433,1.80904 -3.1937,1.8295 -0.78564,0.0416 -1.15782,-0.40322 -1.11619,-1.33314 0.10301,-2.12902 3.05894,-9.798046 8.86778,-23.006396 3.34856,-7.58578 5.02285,-12.63968 5.02285,-15.16204 -1.53,0.76518 -4.0827,1.82951 -7.65846,3.1937 z" />
    <path
       inkscape:connector-curvature="0"
       id="path3780-5"
       style="display:inline;opacity:1;fill:none;stroke:#110f0e;stroke-width:0.35277775;stroke-linecap:butt;stroke-linejoin:miter;stroke-miterlimit:10;stroke-dasharray:none;stroke-opacity:1"
       d="m 132.04096,76.696394 -1.92228,5.45712 c -0.26882,0.0208 -0.43427,0.031 -0.496,0.031 l -2.85257,0.12383 -2.54247,0.15522 -0.5274,0.0617 -2.66629,7.03862 0.86818,0.37183 1.67429,-4.27885 c 1.42628,-0.20637 2.94534,-0.31009 4.55788,-0.31009 l 0.8061,0.0311 -0.46496,1.20932 c -1.2199,3.1422 -2.07751,5.08036 -2.57351,5.81378 -0.49636,0.73378 -1.29223,1.23543 -2.3876,1.50354 l -0.34114,0.0621 -0.27905,0.83714 c -4.7953,13.600986 -8.44373,23.254396 -10.94493,28.959516 l -0.40322,0.96132 0.52705,-0.15522 c 1.07526,-0.248 2.10855,-0.58914 3.10056,-1.02305 l 0.5274,-1.39524 8.4956,-21.67326 c 0.84737,-2.149466 2.67653,-6.924316 5.48781,-14.324536 l 0.31009,-0.7754 c 4.17513,0 6.26322,1.79846 6.26322,5.39503 0,1.57127 -0.40287,3.40078 -1.20932,5.48816 -0.8061,2.08809 -1.79811,3.886546 -2.97639,5.395026 -1.6951,2.17029 -3.50379,3.25544 -5.42607,3.25544 -0.74401,0 -1.64324,-0.34079 -2.69734,-1.02306 -0.26917,0.49601 -0.40323,0.9719 -0.40323,1.42628 0,1.0541 0.63042,1.58115 1.89124,1.58115 2.08774,0 4.51627,-1.40511 7.28663,-4.21675 1.94239,-1.98438 3.49814,-4.267906 4.66619,-6.851996 1.16769,-2.58375 1.75189,-5.04331 1.75189,-7.37941 0,-4.17512 -2.64618,-6.26322 -7.9375,-6.26322 l 1.8602,-5.48816 z" />
    <path
       inkscape:connector-curvature="0"
       id="path3784-6"
       style="display:inline;opacity:1;fill:none;stroke:#110f0e;stroke-width:0.35277775;stroke-linecap:butt;stroke-linejoin:miter;stroke-miterlimit:10;stroke-dasharray:none;stroke-opacity:1"
       d="m 156.59758,104.3536 c -0.55809,0.0416 -0.83714,-0.23741 -0.83714,-0.83714 0,-0.74401 0.98143,-3.31752 2.94569,-7.720536 l 0.24801,-0.52705 c -1.46791,0.49601 -2.6977,0.78599 -3.68971,0.86819 2.0253,-2.60456 3.03848,-4.90926 3.03848,-6.91445 0,-1.44639 -0.44486,-2.43875 -1.33315,-2.97638 -0.76517,3.51437 -2.20168,6.90421 -4.30988,10.16987 -1.53,2.35656 -3.26637,4.429126 -5.20912,6.216646 -1.9431,1.78824 -3.43147,2.68217 -4.46476,2.68217 -1.2199,0 -1.8295,-0.82656 -1.8295,-2.48073 0,-3.534476 1.67463,-7.100356 5.0232,-10.696926 4.54695,-4.89902 9.97303,-7.34836 16.27787,-7.34836 1.32257,0 2.68711,0.12418 4.09293,0.37218 0.62018,-1.15746 0.93028,-1.94274 0.93028,-2.35655 0,-0.49601 -0.33091,-0.74401 -0.99237,-0.74401 -4.71276,0 -9.44668,1.33315 -14.20072,3.99979 -4.21675,2.3361 -7.72054,5.31742 -10.51101,8.94504 -2.79047,3.62761 -4.18571,7.002636 -4.18571,10.123306 0,1.84009 0.7232,2.75978 2.17029,2.75978 1.65347,0 3.89149,-1.03364 6.71301,-3.10092 2.82152,-2.06657 5.56542,-4.67113 8.23207,-7.813316 -2.35656,5.105746 -3.58669,8.702316 -3.6897,10.790056 3.76167,-0.93027 6.72817,-2.21156 8.89846,-3.84457 l -0.55809,-0.80645 c -1.32292,0.78599 -2.24296,1.19909 -2.75943,1.24036 z" />
    <path
       inkscape:connector-curvature="0"
       id="path3788-2"
       style="display:inline;opacity:1;fill:none;stroke:#110f0e;stroke-width:0.35277775;stroke-linecap:butt;stroke-linejoin:miter;stroke-miterlimit:10;stroke-dasharray:none;stroke-opacity:1"
       d="m 175.32514,82.060384 0.31009,-0.71297 0.93028,-2.23273 c 0.5782,-1.36419 0.98143,-2.34561 1.20897,-2.94534 -0.97191,0.24801 -1.95333,0.37183 -2.94534,0.37183 -0.10372,0 -0.3101,-0.01 -0.62019,-0.0307 -1.0541,2.5841 -1.88665,4.15466 -2.4959,4.71276 -0.60995,0.55809 -1.80375,0.83714 -3.5814,0.83714 h -0.40287 l -0.43427,0.93027 h 4.06188 l -0.31009,0.71297 c -0.28963,0.7239 -1.33315,3.16265 -3.13161,7.31731 l -3.22439,7.34837 c -1.73637,4.010726 -2.60456,6.449476 -2.60456,7.317666 0,1.2199 0.77506,1.82915 2.32551,1.82915 1.03329,0 2.34563,-0.3302 3.93771,-0.99201 1.59138,-0.66146 3.00743,-1.46756 4.2478,-2.41865 l -0.49636,-0.80609 c -1.90182,1.28199 -3.40007,1.92228 -4.4958,1.92228 -0.90981,0 -1.36419,-0.44414 -1.36419,-1.33314 0,-0.88865 0.75459,-3.00744 2.26342,-6.356346 1.28164,-2.87268 2.27365,-5.12587 2.97674,-6.75923 1.73602,-4.00967 2.8007,-6.42831 3.19334,-7.25523 l 0.248,-0.52705 h 4.37198 l 0.40322,-0.93027 z" />
    <path
       inkscape:connector-curvature="0"
       id="path3792-9"
       style="display:inline;opacity:1;fill:none;stroke:#110f0e;stroke-width:0.35277775;stroke-linecap:butt;stroke-linejoin:miter;stroke-miterlimit:10;stroke-dasharray:none;stroke-opacity:1"
       d="m 186.70427,81.781334 c -2.37701,1.0541 -4.71276,2.00519 -7.00722,2.85256 l -0.65123,0.21696 0.31009,0.99236 c 0.31009,-0.12417 0.50624,-0.19614 0.58914,-0.21731 l 1.3021,-0.46496 c 0.43427,-0.14428 0.78564,-0.21696 1.05445,-0.21696 0.57821,0 0.84737,0.32068 0.8061,0.96097 -0.0416,0.82726 -1.17828,3.67982 -3.41065,8.55768 -1.75719,3.80365 -2.89913,6.526736 -3.42618,8.169976 -0.52705,1.6436 -0.84244,3.43712 -0.9458,5.37951 1.94275,-0.6611 4.53708,-1.76706 7.78263,-3.31752 l -0.40323,-0.89923 c -0.95073,0.41381 -1.633,0.63076 -2.04646,0.65123 -0.72355,0.0416 -1.07491,-0.25824 -1.0541,-0.89923 0.0413,-0.62019 0.67134,-2.32551 1.89124,-5.115986 l 2.29447,-5.20876 c 2.56293,-5.7464 3.84493,-9.59097 3.84493,-11.53442 v -0.34079 z m 1.25589,-7.72054 c -0.42404,0.43427 -0.63571,0.92004 -0.63571,1.45732 0,0.95109 0.48543,1.42628 1.45733,1.42628 0.53728,0 1.01776,-0.21695 1.4418,-0.65122 0.42334,-0.43392 0.63536,-0.91934 0.63536,-1.45698 0,-0.95073 -0.47555,-1.42628 -1.42629,-1.42628 -0.55809,0 -1.04916,0.21696 -1.47249,0.65088 z" />
    <path
       inkscape:connector-curvature="0"
       id="path3796-1"
       style="display:inline;opacity:1;fill:none;stroke:#110f0e;stroke-width:0.35277775;stroke-linecap:butt;stroke-linejoin:miter;stroke-miterlimit:10;stroke-dasharray:none;stroke-opacity:1"
       d="m 207.54021,81.719314 c -3.8033,0 -7.70008,1.64324 -11.68929,4.93007 -2.97639,2.45992 -5.36399,5.22958 -7.16245,8.30933 -1.79811,3.08045 -2.69734,5.953116 -2.69734,8.619766 0,3.10057 1.37442,4.65067 4.12362,4.65067 3.22474,0 6.79062,-1.88066 10.69728,-5.64303 2.64584,-2.56258 3.96875,-4.733216 3.96875,-6.511216 0,-0.4131 -0.11394,-0.81633 -0.34113,-1.20897 -0.14464,0.26882 -0.23778,0.4445 -0.27905,0.52705 l -0.8061,1.5501 c -1.28199,2.50155 -2.86314,4.516966 -4.7438,6.046256 -1.88136,1.53 -3.71052,2.29447 -5.48816,2.29447 -2.0881,0 -3.13161,-1.13665 -3.13161,-3.41066 0,-1.83938 0.59372,-4.108446 1.78294,-6.805786 1.1885,-2.69769 2.61972,-5.01755 4.29401,-6.96101 1.75683,-2.04611 3.84492,-3.06951 6.26321,-3.06951 1.57092,0 2.35656,0.37217 2.35656,1.11618 0,0.60008 -0.3616,1.68522 -1.08515,3.25579 l -0.248,0.52705 h 1.08515 l 4.37197,-8.15446 c -0.60007,-0.0413 -1.02341,-0.0621 -1.27141,-0.0621 z" />
    <path
       inkscape:connector-curvature="0"
       id="path3836-2"
       style="display:inline;opacity:1;fill:none;stroke:#13100e;stroke-width:0.34197482;stroke-linecap:butt;stroke-linejoin:miter;stroke-miterlimit:10;stroke-dasharray:none;stroke-opacity:1"
       d="m 204.73812,76.683844 c 1.1956,-1.88625 2.33341,-3.67769 3.41295,-5.37399 1.07883,-1.6963 2.11416,-3.29149 3.10434,-4.78491 0.99006,-1.49308 1.94256,-2.88009 2.85738,-4.15969 0.9146,-1.27993 1.80556,-2.44649 2.67255,-3.49968 l -0.005,-0.0583 c -0.26237,-0.0865 -0.49481,-0.12928 -0.69766,-0.12928 -0.18133,0 -0.35601,0.0322 -0.5243,0.0971 -0.16817,0.0646 -0.3374,0.16807 -0.50782,0.31062 -0.17077,0.14254 -0.34687,0.32785 -0.52973,0.55692 -0.18238,0.22874 -0.37778,0.50488 -0.58633,0.82876 -0.23885,0.37128 -0.54161,0.8503 -0.9084,1.43739 -0.36702,0.58676 -0.78733,1.26469 -1.26128,2.03278 -0.47371,0.76842 -0.9984,1.61972 -1.57395,2.55456 -0.57544,0.9345 -1.18888,1.93465 -1.84008,3.00076 -0.6512,1.06611 -1.33824,2.19189 -2.06086,3.37668 -0.72263,1.18479 -1.46961,2.40937 -2.24083,3.67438 z" />
    <path
       inkscape:connector-curvature="0"
       id="path3756-7"
       style="display:inline;opacity:1;fill:none;stroke:#12100f;stroke-width:0.35277775;stroke-linecap:butt;stroke-linejoin:miter;stroke-miterlimit:10;stroke-dasharray:none;stroke-opacity:1"
       d="m 96.308333,37.708317 c -5.92561,0 -10.42141,-0.120297 -13.487395,-0.361597 -1.48167,2.101846 -3.0667,3.858686 -4.75439,5.270856 l 1.8602,0.20672 c 5.718525,0.65476 10.274995,1.636888 13.669075,2.945698 3.39266,1.30951 6.26074,3.18699 8.603537,5.63245 2.54952,2.65324 4.03084,5.52944 4.44429,8.63 l -1.03363,0.77541 c -5.37422,3.96204 -11.868147,7.26934 -19.481797,9.92187 l -10.438685,3.61703 c -0.0695,0 -0.46532,0.13829 -1.18851,0.41346 -1.58503,-11.16189 -4.25521,-20.05048 -8.00982,-26.66506 -3.34222,-5.959478 -7.62212,-10.567812 -12.841467,-13.823245 -5.219348,-3.255786 -10.895893,-4.883503 -17.027525,-4.883503 -9.301691,0 -17.113955,3.307291 -23.435379,9.921875 -6.3221307,6.614583 -9.4826667,14.779623 -9.4826667,24.494773 0,8.23418 2.635603,15.21848 7.9068077,20.95464 5.270853,5.73617 11.695641,8.60425 19.275072,8.60425 4.409368,0 8.630001,-1.03364 12.660841,-3.10056 L 43.2368,89.333104 c -2.515307,0.72355 -4.960761,1.08515 -7.338132,1.08515 -5.78767,0 -11.213746,-1.55011 -16.277871,-4.65103 -4.100336,-2.48037 -7.312377,-5.85611 -9.6378877,-10.12824 -2.325158,-4.27144 -3.487914,-8.90553 -3.487914,-13.90121 0,-8.09555 2.436636,-14.80538 7.3120247,-20.127738 4.874683,-5.322708 11.015133,-7.984064 18.422761,-7.984064 10.542058,0 19.309292,4.892322 26.303107,14.675902 5.02956,7.02804 8.26841,16.70932 9.71515,29.04243 -6.30449,2.82505 -11.38625,6.33907 -15.244232,10.54171 -3.859038,4.2037 -5.788025,8.30298 -5.788025,12.299236 0,3.75532 1.842558,5.78767 5.529437,6.09777 -1.343377,-2.61797 -2.015418,-4.99498 -2.015418,-7.131406 0,-7.92339 5.925258,-14.21094 17.776828,-18.86196 0.65405,5.03025 0.98178,10.64542 0.98178,16.84655 0,3.996966 -0.20673,7.906446 -0.62019,11.730556 l 1.29188,-1.39524 c 4.78825,-5.40843 10.57592,-11.265596 17.363355,-17.570086 9.57721,-8.85331 15.994237,-15.39064 19.249667,-19.61127 3.25579,-4.21957 5.03802,-8.32802 5.34811,-12.32465 7.64823,-6.71794 13.09159,-13.71105 16.32973,-20.980744 -6.99382,0.482952 -17.70768,0.723547 -32.142627,0.723547 z m 15.658037,17.880187 c -0.62019,-5.89139 -4.96112,-10.52442 -13.022437,-13.901208 h 2.170287 l 9.40505,-0.15487 9.92187,-0.15522 1.70533,-0.0515 c -2.37701,5.512508 -5.77038,10.266538 -10.1801,14.262798 z m -11.11038,17.49249 c -2.618317,3.35879 -7.131407,8.05321 -13.539257,14.08182 l -5.271205,5.01262 c -2.68711,2.51496 -5.11598,4.9269 -7.28627,7.23442 0.27552,-3.169 0.41345,-7.06191 0.41345,-11.67871 0,-3.72075 -0.121,-6.92468 -0.36195,-9.61178 0.62019,-0.20673 0.94757,-0.3101 0.98214,-0.3101 l 8.93974,-2.79047 c 7.648215,-2.41123 14.796905,-6.42479 21.446052,-12.04065 -0.93027,3.37678 -2.70474,6.7437 -5.3227,10.10285 z" />
    <path
       inkscape:connector-curvature="0"
       id="path3806-0"
       style="display:inline;opacity:1;fill:none;stroke:#110f0e;stroke-width:0.34197482;stroke-linecap:butt;stroke-linejoin:miter;stroke-miterlimit:10;stroke-dasharray:none;stroke-opacity:1"
       d="m 130.61961,45.278784 c -0.67993,1.79443 -1.37932,3.60741 -2.09874,5.43863 -0.71944,1.83222 -1.4677,3.71648 -2.24467,5.65444 -0.77709,1.93731 -1.60546,3.9903 -2.48545,6.158 l 0.19605,0.0225 2.80902,-0.33979 c 0.67938,-1.72216 1.36634,-3.46321 2.05995,-5.22349 0.69301,-1.75962 1.36494,-3.4652 2.01508,-5.11575 0.64932,-1.65022 1.26368,-3.20828 1.84261,-4.67386 0.57846,-1.46524 1.09022,-2.76274 1.53552,-3.892168 0.44518,-1.1291 0.80816,-2.05465 1.08964,-2.77567 0.28125,-0.72135 0.45268,-1.16523 0.51325,-1.331646 0.17592,-0.483331 0.32101,-0.913953 0.43586,-1.291535 0.1145,-0.377581 0.15708,-0.69715 0.12762,-0.957379 -0.0299,-0.260893 -0.15499,-0.457142 -0.37508,-0.58908 -0.21997,-0.13227 -0.57931,-0.198571 -1.07778,-0.198571 -0.52106,0 -1.20478,0.06796 -2.05117,0.203874 -0.84675,0.135917 -1.87741,0.347747 -3.09232,0.634497 l -0.22871,0.940473 c 0.41448,-0.06 0.80811,-0.103429 1.18042,-0.12995 0.37243,-0.02685 0.68311,-0.04011 0.93217,-0.04011 0.37007,0 0.6536,0.03613 0.85037,0.10807 0.19654,0.0716 0.32648,0.186636 0.38969,0.345425 0.063,0.158459 0.0657,0.364322 0.008,0.617258 -0.0588,0.2536 -0.15214,0.557584 -0.28125,0.912294 -0.68738,1.88857 -1.37091,3.72974 -2.0499,5.523498 z" />
  </g>
</svg>
