<?xml version="1.0" encoding="UTF-8" standalone="no"?>
<!-- Created with Inkscape (http://www.inkscape.org/) -->

<svg
   xmlns:dc="http://purl.org/dc/elements/1.1/"
   xmlns:cc="http://creativecommons.org/ns#"
   xmlns:rdf="http://www.w3.org/1999/02/22-rdf-syntax-ns#"
   xmlns:svg="http://www.w3.org/2000/svg"
   xmlns="http://www.w3.org/2000/svg"
   xmlns:sodipodi="http://sodipodi.sourceforge.net/DTD/sodipodi-0.dtd"
   xmlns:inkscape="http://www.inkscape.org/namespaces/inkscape"
   width="826.6792"
   height="382.02826"
   viewBox="0 0 218.72554 101.07831"
   version="1.1"
   id="svg8"
   inkscape:version="0.92.3 (2405546, 2018-03-11)"
   sodipodi:docname="vector_logo2.svg">
  <defs
     id="defs2">
    <clipPath
       id="clipPath3748"
       clipPathUnits="userSpaceOnUse">
      <path
         inkscape:connector-curvature="0"
         id="path3746"
         d="M 0,396.85 H 623.62 V 0 H 0 Z" />
    </clipPath>
    <clipPath
       id="clipPath3768"
       clipPathUnits="userSpaceOnUse">
      <path
         inkscape:connector-curvature="0"
         id="path3766"
         d="M 0,396.85 H 623.62 V 0 H 0 Z" />
    </clipPath>
  </defs>
  <sodipodi:namedview
     id="base"
     pagecolor="#ffffff"
     bordercolor="#666666"
     borderopacity="1.0"
     inkscape:pageopacity="0.0"
     inkscape:pageshadow="2"
     inkscape:zoom="1.979899"
     inkscape:cx="396.89262"
     inkscape:cy="192.75689"
     inkscape:document-units="mm"
     inkscape:current-layer="layer2"
     showgrid="true"
     units="px"
     inkscape:window-width="1920"
     inkscape:window-height="1017"
     inkscape:window-x="0"
     inkscape:window-y="30"
     inkscape:window-maximized="1"
     fit-margin-top="10"
     fit-margin-left="10"
     fit-margin-right="10"
     fit-margin-bottom="10"
     inkscape:pagecheckerboard="true">
    <inkscape:grid
       type="xygrid"
       id="grid3896"
       snapvisiblegridlinesonly="false"
       originx="-0.8819481"
       originy="-169.3555" />
  </sodipodi:namedview>
  <metadata
     id="metadata5">
    <rdf:RDF>
      <cc:Work
         rdf:about="">
        <dc:format>image/svg+xml</dc:format>
        <dc:type
           rdf:resource="http://purl.org/dc/dcmitype/StillImage" />
        <dc:title></dc:title>
      </cc:Work>
    </rdf:RDF>
  </metadata>
  <g
     inkscape:groupmode="layer"
     id="layer2"
     inkscape:label="Layer 2"
     transform="translate(-0.88194809,-26.566184)"
     style="display:inline">
    <path
       inkscape:connector-curvature="0"
       id="path3816-6"
       style="display:inline;opacity:1;fill:none;stroke:#110f0e;stroke-width:0.34197482;stroke-linecap:butt;stroke-linejoin:miter;stroke-miterlimit:10;stroke-dasharray:none;stroke-opacity:1"
       d="m 144.97001,37.131146 c -0.0775,-0.253268 -0.17829,-0.455154 -0.30072,-0.606319 -0.12219,-0.150833 -0.27487,-0.260561 -0.45793,-0.328519 -0.1834,-0.06796 -0.41474,-0.102103 -0.69379,-0.102103 -0.27199,0 -0.58381,0.02122 -0.93473,0.06265 -0.35164,0.04144 -0.74858,0.09978 -1.19166,0.175365 -0.44273,0.07558 -0.94173,0.170061 -1.49651,0.283103 -0.55491,0.113374 -1.1757,0.241997 -1.86247,0.385207 l -0.23805,0.99716 c 0.42965,-0.06 0.81024,-0.105418 1.14237,-0.135917 0.33236,-0.03017 0.62684,-0.04542 0.88331,-0.04542 0.36301,0 0.64515,0.03414 0.8469,0.102102 0.2021,0.06796 0.34222,0.175365 0.42069,0.323215 0.0785,0.146856 0.10038,0.335813 0.0654,0.566538 -0.0345,0.230395 -0.11111,0.507862 -0.22923,0.832404 -0.22008,0.60466 -0.48229,1.314408 -0.78664,2.130236 -0.30469,0.815828 -0.64506,1.699614 -1.02146,2.651366 -0.37675,0.95176 -0.78525,1.95488 -1.22502,3.00807 -0.44084,1.05418 -0.90429,2.12493 -1.39048,3.21259 -0.48654,1.08766 -0.99682,2.17366 -1.53142,3.25768 -0.53412,1.08368 -1.08076,2.13388 -1.63931,3.14993 -0.55843,1.01572 -1.12917,1.97708 -1.71235,2.88341 -0.58293,0.90666 -1.17012,1.72613 -1.76168,2.45875 l 0.11748,0.11338 c 0.14057,0.007 0.25565,0.0129 0.34486,0.0169 0.0897,0.004 0.16411,0.006 0.22479,0.006 h 0.30585 c 0.33232,0 0.62503,-0.0152 0.87754,-0.0451 0.25276,-0.0305 0.486,-0.10045 0.69974,-0.20984 0.21326,-0.10907 0.41845,-0.27349 0.61545,-0.49295 0.19676,-0.21879 0.40305,-0.51515 0.61829,-0.88942 0.21536,-0.3736 0.45321,-0.84003 0.7132,-1.39927 0.25975,-0.55858 0.56093,-1.23485 0.90258,-2.02814 0.48512,-1.12544 0.99826,-2.34338 1.53943,-3.65381 0.54093,-1.31076 1.10359,-2.69479 1.68727,-4.15307 0.5831,-1.45761 1.18017,-2.97788 1.79018,-4.56081 0.60999,-1.581942 1.22616,-3.207962 1.84908,-4.877741 0.1046,0.438578 0.23185,0.970971 0.38151,1.597842 0.14967,0.626872 0.31647,1.320044 0.50102,2.078866 0.18465,0.759473 0.38224,1.569663 0.59418,2.430573 0.21147,0.86125 0.4299,1.74503 0.6553,2.65136 0.22492,0.90666 0.45306,1.82095 0.68467,2.74219 0.23078,0.92158 0.45927,1.82426 0.68546,2.70805 0.22584,0.88378 0.44541,1.73342 0.65824,2.54925 0.21282,0.81582 0.41331,1.56767 0.60133,2.25488 0.18756,0.68753 0.36078,1.29717 0.51813,1.83022 0.15736,0.53206 0.2916,0.95705 0.40297,1.2743 l 0.19558,0.0229 1.44818,-0.18133 c 0.26666,-0.73262 0.52983,-1.44502 0.78869,-2.13587 0.25945,-0.69152 0.51765,-1.37475 0.77508,-2.05101 0.25683,-0.6756 0.51602,-1.35186 0.77757,-2.0278 0.26083,-0.67593 0.5283,-1.3691 0.80203,-2.07951 0.31698,-0.80787 0.6793,-1.72581 1.08743,-2.75313 0.40779,-1.02733 0.84866,-2.09808 1.32192,-3.21226 0.47362,-1.11418 0.97472,-2.23798 1.5046,-3.37105 0.52918,-1.133091 1.07466,-2.211137 1.63646,-3.235149 0.56085,-1.023349 1.12861,-1.954208 1.70151,-2.792578 0.57372,-0.838702 1.1401,-1.518614 1.70019,-2.039736 l 0.0413,-0.113374 c -0.46435,-0.218792 -0.94934,-0.328519 -1.45558,-0.328519 -0.21131,0 -0.42203,0.02453 -0.63298,0.07392 -0.21047,0.04906 -0.41881,0.133927 -0.625,0.254594 -0.20679,0.12133 -0.40842,0.281777 -0.60606,0.481674 -0.19741,0.200227 -0.38517,0.451506 -0.56318,0.753505 -0.21212,0.355039 -0.45019,0.806546 -0.7136,1.353857 -0.26401,0.547974 -0.56237,1.212637 -0.89591,1.99432 -0.33367,0.782015 -0.70486,1.692321 -1.11286,2.730915 -0.40836,1.038611 -0.86713,2.226391 -1.37632,3.563341 -0.50954,1.33695 -1.07021,2.83666 -1.6827,4.49816 -0.61239,1.66216 -1.287,3.50499 -2.02385,5.52947 -0.16664,-0.55891 -0.34951,-1.19341 -0.54791,-1.90349 -0.19875,-0.71007 -0.40503,-1.4712 -0.6193,-2.28305 -0.21428,-0.81185 -0.43257,-1.66017 -0.65488,-2.54396 -0.22196,-0.88378 -0.44581,-1.77884 -0.67085,-2.68517 -0.22563,-0.90666 -0.44471,-1.80901 -0.6576,-2.70804 -0.213,-0.89871 -0.41544,-1.769243 -0.6072,-2.611923 -0.19201,-0.842016 -0.37088,-1.642595 -0.53648,-2.402068 -0.16585,-0.758809 -0.30964,-1.448335 -0.43127,-2.067913 -0.0693,-0.369957 -0.14328,-0.681238 -0.22078,-0.934506 z" />
    <path
       inkscape:connector-curvature="0"
       id="path3826-7"
       style="display:inline;opacity:1;fill:none;stroke:#110f0e;stroke-width:0.34197482;stroke-linecap:butt;stroke-linejoin:miter;stroke-miterlimit:10;stroke-dasharray:none;stroke-opacity:1"
       d="m 160.88718,54.334854 c 0.47449,-0.64941 1.00061,-1.36314 1.57848,-2.14151 1.48785,-0.0829 2.92261,-0.14884 4.30408,-0.19823 1.38134,-0.0491 2.77346,-0.0812 4.17637,-0.0965 -0.21628,1.46557 -0.3821,2.7518 -0.49804,3.85835 -0.1156,1.10656 -0.18297,2.06029 -0.20272,2.86087 -0.0192,0.80091 0.008,1.46558 0.0845,1.99432 0.0757,0.52875 0.19818,0.95009 0.36744,1.26336 0.16926,0.31327 0.38347,0.53405 0.64251,0.66267 0.25917,0.1283 0.56243,0.1926 0.90992,0.1926 0.61171,0 1.35571,-0.11337 2.23117,-0.33978 0.87592,-0.22675 1.82593,-0.55527 2.85156,-0.98589 l 0.0211,-0.92921 c -0.35877,0.11338 -0.68119,0.20056 -0.96738,0.2609 -0.28654,0.0603 -0.55787,0.0905 -0.81505,0.0905 -0.39264,0 -0.73165,-0.064 -1.01751,-0.19261 -0.28562,-0.12829 -0.5186,-0.3547 -0.69833,-0.67991 -0.18068,-0.32454 -0.30697,-0.77041 -0.38016,-1.33695 -0.0735,-0.56654 -0.091,-1.28623 -0.0529,-2.15841 0.0379,-0.87285 0.12757,-1.91874 0.26973,-3.139 0.1418,-1.21927 0.34116,-2.64904 0.59809,-4.28832 0.25645,-1.63895 0.56805,-3.50696 0.93432,-5.602717 0.36663,-2.09676 0.7886,-4.45507 1.26674,-7.07626 -0.20352,-0.10575 -0.40358,-0.177354 -0.60137,-0.215477 -0.19804,-0.03746 -0.40635,-0.05636 -0.62543,-0.05636 -0.15099,0 -0.30996,0.01127 -0.47691,0.03381 -0.16696,0.02254 -0.33147,0.06067 -0.49459,0.113374 -0.16253,0.05304 -0.32161,0.126634 -0.477,0.221112 -0.15504,0.09448 -0.29666,0.213156 -0.4244,0.356697 -1.38974,1.556074 -3.04605,3.491714 -4.9687,5.807264 -1.92322,2.315207 -4.12789,4.990767 -6.61564,8.027337 -0.48621,0.008 -0.78456,0.16276 -0.89448,0.46476 -0.0606,0.16642 -0.0567,0.37394 0.0113,0.62323 -1.3523,1.63928 -2.75985,3.35381 -4.2235,5.14392 -1.46376,1.79045 -3.00606,3.66775 -4.62747,5.63157 l 0.11796,0.11304 c 0.15562,0.008 0.32938,0.0129 0.52055,0.0169 0.19116,0.004 0.35095,0.006 0.47937,0.006 0.22648,0 0.44384,-0.006 0.65173,-0.0169 0.20813,-0.0116 0.41195,-0.053 0.61205,-0.12498 0.2001,-0.0719 0.40425,-0.18696 0.61291,-0.34542 0.20879,-0.15879 0.42592,-0.38123 0.65153,-0.66864 0.18881,-0.24929 0.39563,-0.52676 0.62012,-0.8324 0.22473,-0.30631 0.48927,-0.67063 0.79457,-1.09363 0.30495,-0.423 0.66137,-0.91959 1.06893,-1.48977 0.40803,-0.57052 0.888,-1.24082 1.44052,-2.01156 0.35504,-0.49858 0.76992,-1.07241 1.24418,-1.72216 z m 6.54779,-3.7788 c -1.2229,0.0189 -2.48983,0.0434 -3.79974,0.0736 1.2859,-1.70691 2.72558,-3.57658 4.31893,-5.60869 1.59323,-2.031777 3.34317,-4.173287 5.25052,-6.424517 h 0.0677 c -0.22367,1.13307 -0.43803,2.25123 -0.64296,3.35414 -0.20528,1.10291 -0.39829,2.162387 -0.57889,3.178117 -0.18108,1.01605 -0.34638,1.97907 -0.49626,2.88904 -0.15047,0.91064 -0.28172,1.7394 -0.39552,2.48727 -1.25968,0.0153 -2.50103,0.0325 -3.72381,0.0511 z" />
    <path
       inkscape:connector-curvature="0"
       id="path3772-5"
       style="display:inline;opacity:1;fill:none;stroke:#110f0e;stroke-width:0.35277775;stroke-linecap:butt;stroke-linejoin:miter;stroke-miterlimit:10;stroke-dasharray:none;stroke-opacity:1"
       d="m 102.39934,104.3536 c -0.55809,0.0416 -0.83714,-0.23741 -0.83714,-0.83714 0,-0.74401 0.98143,-3.31752 2.9457,-7.720536 l 0.248,-0.52705 c -1.46791,0.49601 -2.69769,0.78599 -3.6897,0.86819 2.02529,-2.60456 3.03847,-4.90926 3.03847,-6.91445 0,-1.44639 -0.44485,-2.43875 -1.33315,-2.97638 -0.76517,3.51437 -2.20168,6.90421 -4.309877,10.16987 -1.53,2.35656 -3.26637,4.429126 -5.20912,6.216646 -1.9431,1.78824 -3.43147,2.68217 -4.46475,2.68217 -1.21991,0 -1.82951,-0.82656 -1.82951,-2.48073 0,-3.534476 1.67464,-7.100356 5.0232,-10.696926 4.54696,-4.89902 9.973027,-7.34836 16.277867,-7.34836 1.32257,0 2.68711,0.12418 4.09293,0.37218 0.62019,-1.15746 0.93028,-1.94274 0.93028,-2.35655 0,-0.49601 -0.33091,-0.74401 -0.99237,-0.74401 -4.71275,0 -9.44668,1.33315 -14.200707,3.99979 -4.21676,2.3361 -7.72054,5.31742 -10.51102,8.94504 -2.790474,3.62761 -4.185703,7.002636 -4.185703,10.123306 0,1.84009 0.72319,2.75978 2.170283,2.75978 1.65347,0 3.8915,-1.03364 6.71301,-3.10092 2.82152,-2.06657 5.56542,-4.67113 8.232067,-7.813316 -2.356547,5.105746 -3.586687,8.702316 -3.689697,10.790056 3.761667,-0.93027 6.728177,-2.21156 8.898467,-3.84457 l -0.5581,-0.80645 c -1.32292,0.78599 -2.24296,1.19909 -2.75943,1.24036 z" />
    <path
       inkscape:connector-curvature="0"
       id="path3776-3"
       style="display:inline;opacity:1;fill:none;stroke:#110f0e;stroke-width:0.35277775;stroke-linecap:butt;stroke-linejoin:miter;stroke-miterlimit:10;stroke-dasharray:none;stroke-opacity:1"
       d="m 118.77045,68.417834 -0.46496,0.18591 0.31009,0.89923 c 0.20638,-0.0621 0.36125,-0.11324 0.46496,-0.15487 0.86819,-0.26846 1.4157,-0.40322 1.64324,-0.40322 0.64065,0 0.96132,0.27904 0.96132,0.83714 0,0.70308 -0.889,3.17323 -2.66664,7.41045 l -2.94535,7.06931 c -3.24555,7.7724 -5.29731,12.86757 -6.15491,15.28586 -0.85796,2.418646 -1.28658,4.299656 -1.28658,5.643036 0,1.73637 0.62018,2.60456 1.8602,2.60456 1.55045,0 3.98921,-1.45733 7.31731,-4.37163 l -0.58913,-0.80645 -0.37183,0.27905 c -1.53,1.19909 -2.59433,1.80904 -3.1937,1.8295 -0.78564,0.0416 -1.15782,-0.40322 -1.11619,-1.33314 0.10301,-2.12902 3.05894,-9.798046 8.86778,-23.006396 3.34856,-7.58578 5.02285,-12.63968 5.02285,-15.16204 -1.53,0.76518 -4.0827,1.82951 -7.65846,3.1937 z" />
    <path
       inkscape:connector-curvature="0"
       id="path3780-5"
       style="display:inline;opacity:1;fill:none;stroke:#110f0e;stroke-width:0.35277775;stroke-linecap:butt;stroke-linejoin:miter;stroke-miterlimit:10;stroke-dasharray:none;stroke-opacity:1"
       d="m 132.04096,76.696394 -1.92228,5.45712 c -0.26882,0.0208 -0.43427,0.031 -0.496,0.031 l -2.85257,0.12383 -2.54247,0.15522 -0.5274,0.0617 -2.66629,7.03862 0.86818,0.37183 1.67429,-4.27885 c 1.42628,-0.20637 2.94534,-0.31009 4.55788,-0.31009 l 0.8061,0.0311 -0.46496,1.20932 c -1.2199,3.1422 -2.07751,5.08036 -2.57351,5.81378 -0.49636,0.73378 -1.29223,1.23543 -2.3876,1.50354 l -0.34114,0.0621 -0.27905,0.83714 c -4.7953,13.600986 -8.44373,23.254396 -10.94493,28.959516 l -0.40322,0.96132 0.52705,-0.15522 c 1.07526,-0.248 2.10855,-0.58914 3.10056,-1.02305 l 0.5274,-1.39524 8.4956,-21.67326 c 0.84737,-2.149466 2.67653,-6.924316 5.48781,-14.324536 l 0.31009,-0.7754 c 4.17513,0 6.26322,1.79846 6.26322,5.39503 0,1.57127 -0.40287,3.40078 -1.20932,5.48816 -0.8061,2.08809 -1.79811,3.886546 -2.97639,5.395026 -1.6951,2.17029 -3.50379,3.25544 -5.42607,3.25544 -0.74401,0 -1.64324,-0.34079 -2.69734,-1.02306 -0.26917,0.49601 -0.40323,0.9719 -0.40323,1.42628 0,1.0541 0.63042,1.58115 1.89124,1.58115 2.08774,0 4.51627,-1.40511 7.28663,-4.21675 1.94239,-1.98438 3.49814,-4.267906 4.66619,-6.851996 1.16769,-2.58375 1.75189,-5.04331 1.75189,-7.37941 0,-4.17512 -2.64618,-6.26322 -7.9375,-6.26322 l 1.8602,-5.48816 z" />
    <path
       inkscape:connector-curvature="0"
       id="path3784-6"
       style="display:inline;opacity:1;fill:none;stroke:#110f0e;stroke-width:0.35277775;stroke-linecap:butt;stroke-linejoin:miter;stroke-miterlimit:10;stroke-dasharray:none;stroke-opacity:1"
       d="m 156.59758,104.3536 c -0.55809,0.0416 -0.83714,-0.23741 -0.83714,-0.83714 0,-0.74401 0.98143,-3.31752 2.94569,-7.720536 l 0.24801,-0.52705 c -1.46791,0.49601 -2.6977,0.78599 -3.68971,0.86819 2.0253,-2.60456 3.03848,-4.90926 3.03848,-6.91445 0,-1.44639 -0.44486,-2.43875 -1.33315,-2.97638 -0.76517,3.51437 -2.20168,6.90421 -4.30988,10.16987 -1.53,2.35656 -3.26637,4.429126 -5.20912,6.216646 -1.9431,1.78824 -3.43147,2.68217 -4.46476,2.68217 -1.2199,0 -1.8295,-0.82656 -1.8295,-2.48073 0,-3.534476 1.67463,-7.100356 5.0232,-10.696926 4.54695,-4.89902 9.97303,-7.34836 16.27787,-7.34836 1.32257,0 2.68711,0.12418 4.09293,0.37218 0.62018,-1.15746 0.93028,-1.94274 0.93028,-2.35655 0,-0.49601 -0.33091,-0.74401 -0.99237,-0.74401 -4.71276,0 -9.44668,1.33315 -14.20072,3.99979 -4.21675,2.3361 -7.72054,5.31742 -10.51101,8.94504 -2.79047,3.62761 -4.18571,7.002636 -4.18571,10.123306 0,1.84009 0.7232,2.75978 2.17029,2.75978 1.65347,0 3.89149,-1.03364 6.71301,-3.10092 2.82152,-2.06657 5.56542,-4.67113 8.23207,-7.813316 -2.35656,5.105746 -3.58669,8.702316 -3.6897,10.790056 3.76167,-0.93027 6.72817,-2.21156 8.89846,-3.84457 l -0.55809,-0.80645 c -1.32292,0.78599 -2.24296,1.19909 -2.75943,1.24036 z" />
    <path
       inkscape:connector-curvature="0"
       id="path3788-2"
       style="display:inline;opacity:1;fill:none;stroke:#110f0e;stroke-width:0.35277775;stroke-linecap:butt;stroke-linejoin:miter;stroke-miterlimit:10;stroke-dasharray:none;stroke-opacity:1"
       d="m 175.32514,82.060384 0.31009,-0.71297 0.93028,-2.23273 c 0.5782,-1.36419 0.98143,-2.34561 1.20897,-2.94534 -0.97191,0.24801 -1.95333,0.37183 -2.94534,0.37183 -0.10372,0 -0.3101,-0.01 -0.62019,-0.0307 -1.0541,2.5841 -1.88665,4.15466 -2.4959,4.71276 -0.60995,0.55809 -1.80375,0.83714 -3.5814,0.83714 h -0.40287 l -0.43427,0.93027 h 4.06188 l -0.31009,0.71297 c -0.28963,0.7239 -1.33315,3.16265 -3.13161,7.31731 l -3.22439,7.34837 c -1.73637,4.010726 -2.60456,6.449476 -2.60456,7.317666 0,1.2199 0.77506,1.82915 2.32551,1.82915 1.03329,0 2.34563,-0.3302 3.93771,-0.99201 1.59138,-0.66146 3.00743,-1.46756 4.2478,-2.41865 l -0.49636,-0.80609 c -1.90182,1.28199 -3.40007,1.92228 -4.4958,1.92228 -0.90981,0 -1.36419,-0.44414 -1.36419,-1.33314 0,-0.88865 0.75459,-3.00744 2.26342,-6.356346 1.28164,-2.87268 2.27365,-5.12587 2.97674,-6.75923 1.73602,-4.00967 2.8007,-6.42831 3.19334,-7.25523 l 0.248,-0.52705 h 4.37198 l 0.40322,-0.93027 z" />
    <path
       inkscape:connector-curvature="0"
       id="path3792-9"
       style="display:inline;opacity:1;fill:none;stroke:#110f0e;stroke-width:0.35277775;stroke-linecap:butt;stroke-linejoin:miter;stroke-miterlimit:10;stroke-dasharray:none;stroke-opacity:1"
       d="m 186.70427,81.781334 c -2.37701,1.0541 -4.71276,2.00519 -7.00722,2.85256 l -0.65123,0.21696 0.31009,0.99236 c 0.31009,-0.12417 0.50624,-0.19614 0.58914,-0.21731 l 1.3021,-0.46496 c 0.43427,-0.14428 0.78564,-0.21696 1.05445,-0.21696 0.57821,0 0.84737,0.32068 0.8061,0.96097 -0.0416,0.82726 -1.17828,3.67982 -3.41065,8.55768 -1.75719,3.80365 -2.89913,6.526736 -3.42618,8.169976 -0.52705,1.6436 -0.84244,3.43712 -0.9458,5.37951 1.94275,-0.6611 4.53708,-1.76706 7.78263,-3.31752 l -0.40323,-0.89923 c -0.95073,0.41381 -1.633,0.63076 -2.04646,0.65123 -0.72355,0.0416 -1.07491,-0.25824 -1.0541,-0.89923 0.0413,-0.62019 0.67134,-2.32551 1.89124,-5.115986 l 2.29447,-5.20876 c 2.56293,-5.7464 3.84493,-9.59097 3.84493,-11.53442 v -0.34079 z m 1.25589,-7.72054 c -0.42404,0.43427 -0.63571,0.92004 -0.63571,1.45732 0,0.95109 0.48543,1.42628 1.45733,1.42628 0.53728,0 1.01776,-0.21695 1.4418,-0.65122 0.42334,-0.43392 0.63536,-0.91934 0.63536,-1.45698 0,-0.95073 -0.47555,-1.42628 -1.42629,-1.42628 -0.55809,0 -1.04916,0.21696 -1.47249,0.65088 z" />
    <path
       inkscape:connector-curvature="0"
       id="path3796-1"
       style="display:inline;opacity:1;fill:none;stroke:#110f0e;stroke-width:0.35277775;stroke-linecap:butt;stroke-linejoin:miter;stroke-miterlimit:10;stroke-dasharray:none;stroke-opacity:1"
       d="m 207.54021,81.719314 c -3.8033,0 -7.70008,1.64324 -11.68929,4.93007 -2.97639,2.45992 -5.36399,5.22958 -7.16245,8.30933 -1.79811,3.08045 -2.69734,5.953116 -2.69734,8.619766 0,3.10057 1.37442,4.65067 4.12362,4.65067 3.22474,0 6.79062,-1.88066 10.69728,-5.64303 2.64584,-2.56258 3.96875,-4.733216 3.96875,-6.511216 0,-0.4131 -0.11394,-0.81633 -0.34113,-1.20897 -0.14464,0.26882 -0.23778,0.4445 -0.27905,0.52705 l -0.8061,1.5501 c -1.28199,2.50155 -2.86314,4.516966 -4.7438,6.046256 -1.88136,1.53 -3.71052,2.29447 -5.48816,2.29447 -2.0881,0 -3.13161,-1.13665 -3.13161,-3.41066 0,-1.83938 0.59372,-4.108446 1.78294,-6.805786 1.1885,-2.69769 2.61972,-5.01755 4.29401,-6.96101 1.75683,-2.04611 3.84492,-3.06951 6.26321,-3.06951 1.57092,0 2.35656,0.37217 2.35656,1.11618 0,0.60008 -0.3616,1.68522 -1.08515,3.25579 l -0.248,0.52705 h 1.08515 l 4.37197,-8.15446 c -0.60007,-0.0413 -1.02341,-0.0621 -1.27141,-0.0621 z" />
    <path
       inkscape:connector-curvature="0"
       id="path3836-2"
       style="display:inline;opacity:1;fill:none;stroke:#13100e;stroke-width:0.34197482;stroke-linecap:butt;stroke-linejoin:miter;stroke-miterlimit:10;stroke-dasharray:none;stroke-opacity:1"
       d="m 204.73812,76.683844 c 1.1956,-1.88625 2.33341,-3.67769 3.41295,-5.37399 1.07883,-1.6963 2.11416,-3.29149 3.10434,-4.78491 0.99006,-1.49308 1.94256,-2.88009 2.85738,-4.15969 0.9146,-1.27993 1.80556,-2.44649 2.67255,-3.49968 l -0.005,-0.0583 c -0.26237,-0.0865 -0.49481,-0.12928 -0.69766,-0.12928 -0.18133,0 -0.35601,0.0322 -0.5243,0.0971 -0.16817,0.0646 -0.3374,0.16807 -0.50782,0.31062 -0.17077,0.14254 -0.34687,0.32785 -0.52973,0.55692 -0.18238,0.22874 -0.37778,0.50488 -0.58633,0.82876 -0.23885,0.37128 -0.54161,0.8503 -0.9084,1.43739 -0.36702,0.58676 -0.78733,1.26469 -1.26128,2.03278 -0.47371,0.76842 -0.9984,1.61972 -1.57395,2.55456 -0.57544,0.9345 -1.18888,1.93465 -1.84008,3.00076 -0.6512,1.06611 -1.33824,2.19189 -2.06086,3.37668 -0.72263,1.18479 -1.46961,2.40937 -2.24083,3.67438 z" />
    <path
       inkscape:connector-curvature="0"
       id="path3756-7"
       style="display:inline;opacity:1;fill:none;stroke:#12100f;stroke-width:0.35277775;stroke-linecap:butt;stroke-linejoin:miter;stroke-miterlimit:10;stroke-dasharray:none;stroke-opacity:1"
       d="m 96.308333,37.708317 c -5.92561,0 -10.42141,-0.120297 -13.487395,-0.361597 -1.48167,2.101846 -3.0667,3.858686 -4.75439,5.270856 l 1.8602,0.20672 c 5.718525,0.65476 10.274995,1.636888 13.669075,2.945698 3.39266,1.30951 6.26074,3.18699 8.603537,5.63245 2.54952,2.65324 4.03084,5.52944 4.44429,8.63 l -1.03363,0.77541 c -5.37422,3.96204 -11.868147,7.26934 -19.481797,9.92187 l -10.438685,3.61703 c -0.0695,0 -0.46532,0.13829 -1.18851,0.41346 -1.58503,-11.16189 -4.25521,-20.05048 -8.00982,-26.66506 -3.34222,-5.959478 -7.62212,-10.567812 -12.841467,-13.823245 -5.219348,-3.255786 -10.895893,-4.883503 -17.027525,-4.883503 -9.301691,0 -17.113955,3.307291 -23.435379,9.921875 -6.3221307,6.614583 -9.4826667,14.779623 -9.4826667,24.494773 0,8.23418 2.635603,15.21848 7.9068077,20.95464 5.270853,5.73617 11.695641,8.60425 19.275072,8.60425 4.409368,0 8.630001,-1.03364 12.660841,-3.10056 L 43.2368,89.333104 c -2.515307,0.72355 -4.960761,1.08515 -7.338132,1.08515 -5.78767,0 -11.213746,-1.55011 -16.277871,-4.65103 -4.100336,-2.48037 -7.312377,-5.85611 -9.6378877,-10.12824 -2.325158,-4.27144 -3.487914,-8.90553 -3.487914,-13.90121 0,-8.09555 2.436636,-14.80538 7.3120247,-20.127738 4.874683,-5.322708 11.015133,-7.984064 18.422761,-7.984064 10.542058,0 19.309292,4.892322 26.303107,14.675902 5.02956,7.02804 8.26841,16.70932 9.71515,29.04243 -6.30449,2.82505 -11.38625,6.33907 -15.244232,10.54171 -3.859038,4.2037 -5.788025,8.30298 -5.788025,12.299236 0,3.75532 1.842558,5.78767 5.529437,6.09777 -1.343377,-2.61797 -2.015418,-4.99498 -2.015418,-7.131406 0,-7.92339 5.925258,-14.21094 17.776828,-18.86196 0.65405,5.03025 0.98178,10.64542 0.98178,16.84655 0,3.996966 -0.20673,7.906446 -0.62019,11.730556 l 1.29188,-1.39524 c 4.78825,-5.40843 10.57592,-11.265596 17.363355,-17.570086 9.57721,-8.85331 15.994237,-15.39064 19.249667,-19.61127 3.25579,-4.21957 5.03802,-8.32802 5.34811,-12.32465 7.64823,-6.71794 13.09159,-13.71105 16.32973,-20.980744 -6.99382,0.482952 -17.70768,0.723547 -32.142627,0.723547 z m 15.658037,17.880187 c -0.62019,-5.89139 -4.96112,-10.52442 -13.022437,-13.901208 h 2.170287 l 9.40505,-0.15487 9.92187,-0.15522 1.70533,-0.0515 c -2.37701,5.512508 -5.77038,10.266538 -10.1801,14.262798 z m -11.11038,17.49249 c -2.618317,3.35879 -7.131407,8.05321 -13.539257,14.08182 l -5.271205,5.01262 c -2.68711,2.51496 -5.11598,4.9269 -7.28627,7.23442 0.27552,-3.169 0.41345,-7.06191 0.41345,-11.67871 0,-3.72075 -0.121,-6.92468 -0.36195,-9.61178 0.62019,-0.20673 0.94757,-0.3101 0.98214,-0.3101 l 8.93974,-2.79047 c 7.648215,-2.41123 14.796905,-6.42479 21.446052,-12.04065 -0.93027,3.37678 -2.70474,6.7437 -5.3227,10.10285 z" />
    <path
       inkscape:connector-curvature="0"
       id="path3806-0"
       style="display:inline;opacity:1;fill:none;stroke:#110f0e;stroke-width:0.34197482;stroke-linecap:butt;stroke-linejoin:miter;stroke-miterlimit:10;stroke-dasharray:none;stroke-opacity:1"
       d="m 130.61961,45.278784 c -0.67993,1.79443 -1.37932,3.60741 -2.09874,5.43863 -0.71944,1.83222 -1.4677,3.71648 -2.24467,5.65444 -0.77709,1.93731 -1.60546,3.9903 -2.48545,6.158 l 0.19605,0.0225 2.80902,-0.33979 c 0.67938,-1.72216 1.36634,-3.46321 2.05995,-5.22349 0.69301,-1.75962 1.36494,-3.4652 2.01508,-5.11575 0.64932,-1.65022 1.26368,-3.20828 1.84261,-4.67386 0.57846,-1.46524 1.09022,-2.76274 1.53552,-3.892168 0.44518,-1.1291 0.80816,-2.05465 1.08964,-2.77567 0.28125,-0.72135 0.45268,-1.16523 0.51325,-1.331646 0.17592,-0.483331 0.32101,-0.913953 0.43586,-1.291535 0.1145,-0.377581 0.15708,-0.69715 0.12762,-0.957379 -0.0299,-0.260893 -0.15499,-0.457142 -0.37508,-0.58908 -0.21997,-0.13227 -0.57931,-0.198571 -1.07778,-0.198571 -0.52106,0 -1.20478,0.06796 -2.05117,0.203874 -0.84675,0.135917 -1.87741,0.347747 -3.09232,0.634497 l -0.22871,0.940473 c 0.41448,-0.06 0.80811,-0.103429 1.18042,-0.12995 0.37243,-0.02685 0.68311,-0.04011 0.93217,-0.04011 0.37007,0 0.6536,0.03613 0.85037,0.10807 0.19654,0.0716 0.32648,0.186636 0.38969,0.345425 0.063,0.158459 0.0657,0.364322 0.008,0.617258 -0.0588,0.2536 -0.15214,0.557584 -0.28125,0.912294 -0.68738,1.88857 -1.37091,3.72974 -2.0499,5.523498 z" />
    <path
       style="opacity:1;fill:#ffffff;stroke:#ffffff;stroke-width:0.50507629"
       d="m 258.29422,305.66706 c 1.66495,-16.78819 2.13338,-53.47181 0.91905,-71.97337 -0.74778,-11.39325 -2.60604,-30.3432 -3.05304,-31.13401 -0.22134,-0.39158 -2.51648,0.37005 -7.14463,2.37091 -31.86509,13.77605 -50.91505,30.39871 -58.25106,50.82888 -1.98459,5.52691 -2.96571,11.72093 -2.94141,18.56985 0.0292,8.22534 1.32949,13.31789 6.49538,25.43868 0.67501,1.5838 -7.54227,-1.02508 -10.90786,-3.4631 -7.44397,-5.39239 -9.49149,-17.74232 -5.32515,-32.11948 7.13471,-24.62042 35.25388,-51.82003 71.29681,-68.96529 5.93447,-2.82297 6.16589,-2.99165 5.939,-4.32902 -0.12984,-0.76538 -0.71024,-4.80086 -1.28977,-8.96774 C 245.6038,121.3271 223.70278,77.333293 188.15391,49.59129 167.98168,33.849063 145.08464,26.107341 118.69743,26.107341 c -17.47273,0 -30.429582,2.9674 -44.438216,10.177311 -21.607655,11.120946 -39.47401,32.501084 -47.67189,57.047533 -6.798627,20.356755 -7.967928,45.278585 -3.090198,65.862755 4.549551,19.19924 15.826878,39.07069 29.424982,51.8489 12.917888,12.13901 31.126423,22.20985 48.751462,26.96363 12.14134,3.27474 26.13827,4.7039 37.16137,3.79437 5.97896,-0.49333 17.55682,-2.43286 19.90758,-3.33493 0.51543,-0.19779 0.90107,0.0704 1.12761,0.78415 0.18936,0.59661 0.25483,1.1742 0.1455,1.28352 -0.69258,0.6926 -12.89219,5.53195 -17.08733,6.77823 -17.5863,5.22449 -37.49423,5.69138 -54.53589,1.279 C 68.418002,243.42008 50.146598,231.11207 35.878593,213.21737 23.669154,197.90449 16.268736,180.89757 12.810749,160.20509 11.659997,153.31903 11.482824,129.17243 12.529097,121.8193 15.876297,98.295423 23.733399,78.316126 36.20024,61.627548 56.78681,34.069591 83.775694,17.572339 116.18054,12.738704 c 7.66067,-1.142695 22.21948,-1.537734 29.7995,-0.80858 39.83243,3.831643 74.43055,26.264313 97.36568,63.129776 15.06045,24.207856 25.19446,54.19852 32.18438,95.24672 1.64408,9.65482 2.31346,12.5925 2.84386,12.48076 1.68578,-0.35517 48.41689,-16.68068 55.24192,-19.29877 23.34394,-8.95473 43.47526,-19.67036 62.01421,-33.00931 l 4.94058,-3.5548 -0.31862,-2.30007 c -0.51583,-3.72361 -3.63118,-12.5595 -5.83731,-16.55602 -6.00286,-10.874502 -16.97455,-21.856679 -29.0948,-29.12261 -14.02448,-8.40749 -34.52323,-14.289512 -60.99848,-17.503228 -5.00026,-0.606959 -9.40087,-1.194273 -9.77914,-1.305141 -0.42414,-0.124311 1.09158,-1.990206 3.95418,-4.867735 2.55308,-2.566386 6.1582,-6.662046 8.01138,-9.101468 l 3.36942,-4.435314 10.10152,0.394703 c 5.55584,0.217087 32.37539,0.376035 59.599,0.353219 46.3474,-0.03884 72.01978,-0.527379 92.36601,-1.757684 4.68784,-0.283467 8.61515,-0.423594 8.72735,-0.311393 0.40328,0.403278 -6.90495,14.045382 -11.26663,21.031181 -10.73815,17.198511 -26.82529,36.138124 -43.54436,51.26538 -5.767,5.21793 -6.11216,5.63961 -6.39961,7.81827 -2.46476,18.68152 -10.68174,34.27055 -29.30064,55.5884 -8.24805,9.44366 -40.83876,41.9063 -59.06944,58.83731 -18.09755,16.80737 -52.06211,50.64858 -62.86184,62.63354 -4.25544,4.72246 -8.29918,9.15451 -8.98607,9.84899 l -1.24891,1.26269 z m 57.58019,-65.36272 c 33.61065,-32.07059 34.4272,-32.86681 43.55529,-42.47107 17.71537,-18.63949 26.25136,-30.04173 33.06831,-44.17208 3.07446,-6.37284 6.52525,-15.51504 6.52525,-17.28742 0,-0.37168 -2.45282,1.35578 -5.45072,3.83879 -12.69783,10.51698 -29.56041,21.47394 -44.7857,29.10081 -12.26581,6.14438 -23.34685,10.31428 -47.62192,17.9206 l -22.09728,6.92392 0.0864,3.73173 c 0.87831,37.93937 0.67996,61.72314 -0.63646,76.31296 l -0.28694,3.18021 6.22687,-6.52134 c 3.42479,-3.58673 17.56239,-17.33743 31.4169,-30.55711 z M 428.1134,102.73806 c 8.44397,-8.958503 15.71118,-18.492646 21.45173,-28.143396 3.32793,-5.59475 9.56117,-18.010345 9.56183,-19.045563 2.8e-4,-0.463714 -2.21335,-0.55104 -9.21727,-0.363613 -10.41141,0.278612 -67.12148,1.213339 -76.39278,1.259148 l -6.06092,0.02995 2.27284,1.070251 c 19.61347,9.23572 26.36909,13.581356 34.85562,22.421302 7.99757,8.330622 12.35489,16.766123 14.12236,27.339951 l 0.61338,3.66953 2.43971,-2.04264 c 1.34184,-1.12346 4.20091,-3.91117 6.3535,-6.19492 z"
       id="path4871"
       inkscape:connector-curvature="0"
       transform="matrix(0.26458333,0,0,0.26458333,0.88194809,26.566184)" />
    <path
       style="opacity:1;fill:#ffffff;stroke:#ffffff;stroke-width:0.50507629"
       d="m 465.90642,134.5653 c 19.36656,-47.9966 34.22379,-86.782081 34.22379,-89.342734 0,-0.580259 -0.57884,-1.633862 -1.28632,-2.34134 -1.23419,-1.234193 -1.49008,-1.279318 -6.31395,-1.113463 -4.96876,0.170836 -6.01536,-0.178916 -4.39529,-1.468824 1.04748,-0.834012 11.41623,-2.718418 16.59791,-3.016488 4.49666,-0.258665 4.93512,-0.199031 5.94234,0.808183 1.17095,1.170949 1.14841,1.657178 -0.2955,6.37537 -0.61722,2.016861 -25.77219,66.335826 -33.28049,85.095186 l -1.77438,4.43327 -2.62318,0.32495 c -1.44275,0.17872 -3.62544,0.46484 -4.85044,0.63582 -1.7811,0.24859 -2.17061,0.17048 -1.94449,-0.38993 z"
       id="path4873"
       inkscape:connector-curvature="0"
       transform="matrix(0.26458333,0,0,0.26458333,0.88194809,26.566184)" />
    <path
       style="opacity:1;fill:#ffffff;stroke:#ffffff;stroke-width:0.50507629"
       d="m 489.01854,134.85298 c 0,-0.15081 0.88681,-1.4577 1.9707,-2.90418 7.64744,-10.20582 17.72146,-29.53306 27.30226,-52.379995 5.42096,-12.927146 12.07327,-30.446421 12.44599,-32.777299 0.63985,-4.001401 -1.85735,-5.450711 -8.40725,-4.879356 -3.78861,0.330486 -3.92884,0.304468 -3.67111,-0.681114 0.31995,-1.22347 0.20474,-1.186014 8.49266,-2.761291 12.18619,-2.316216 14.87964,-2.198854 16.24249,0.707739 0.32182,0.68635 1.65433,6.248165 2.96115,12.359588 2.58196,12.074744 12.35043,51.522718 15.06127,60.821838 0.92489,3.17268 1.82507,5.53641 2.0004,5.25271 0.17534,-0.28369 1.66822,-4.24323 3.31752,-8.79898 15.22789,-42.062912 24.39989,-64.316301 28.37448,-68.843112 2.56886,-2.925775 6.17603,-4.026024 9.91315,-3.023685 1.02357,0.274532 0.88227,0.568648 -2.06211,4.292234 -9.77106,12.356889 -19.37361,32.994697 -36.98791,79.494443 -2.63072,6.9448 -4.94113,12.76791 -5.13426,12.94024 -0.19313,0.17234 -1.39143,0.44671 -2.66288,0.60971 l -2.31175,0.29637 -1.8465,-6.41808 c -2.84232,-9.87929 -9.29689,-35.086963 -14.80625,-57.824265 -2.74095,-11.311955 -5.09812,-20.565161 -5.23817,-20.562681 -0.14005,0.0025 -1.71825,3.923135 -3.50711,8.712565 -5.00344,13.395985 -16.56615,42.350841 -21.6721,54.270361 -7.31913,17.08603 -9.1606,20.27054 -12.53753,21.68152 -1.5794,0.65991 -7.23714,0.98413 -7.23714,0.41472 z"
       id="path4875"
       inkscape:connector-curvature="0"
       transform="matrix(0.26458333,0,0,0.26458333,0.88194809,26.566184)" />
    <path
       style="opacity:1;fill:#ffffff;stroke:#ffffff;stroke-width:0.50507629"
       d="m 646.09726,135.76202 c -1.54586,-0.2716 -2.86619,-1.40734 -3.96605,-3.41155 -1.63903,-2.98671 -0.91009,-23.28821 1.27702,-35.565756 l 0.30719,-1.724447 -14.84525,0.340073 c -8.16489,0.187045 -15.7124,0.483797 -16.77224,0.659463 -2.20726,0.365837 -1.42435,-0.606743 -17.42173,21.642257 -5.39289,7.50039 -10.38691,14.25806 -11.09781,15.01706 -1.80291,1.92487 -4.92473,3.00435 -8.14606,2.81679 l -2.68233,-0.15618 16.47058,-20.04329 c 13.7495,-16.731977 16.47057,-20.301245 16.47057,-21.60464 0,-1.326325 0.2252,-1.60638 1.4961,-1.860559 1.21226,-0.242452 3.91663,-3.234443 14.25496,-15.771008 22.86054,-27.721383 31.14693,-37.323034 33.16495,-38.429073 1.33213,-0.730121 7.26972,-1.076334 7.88846,-0.459967 0.17741,0.176733 -1.26981,9.381748 -3.21605,20.455589 -6.06667,34.518631 -7.69713,46.501008 -7.79107,57.257358 -0.0689,7.88517 0.48782,10.37695 2.9084,13.01826 1.52855,1.66793 1.95273,1.84322 4.91707,2.03198 1.78432,0.11362 4.1001,-0.0298 5.14619,-0.31859 1.78463,-0.49276 1.89228,-0.4592 1.74479,0.54398 -0.12104,0.82333 -1.02814,1.38962 -3.94525,2.46299 -5.8542,2.1541 -13.35523,3.59247 -16.16244,3.09926 z m -10.66013,-44.511725 8.78532,-0.317274 1.89943,-11.364698 c 1.04469,-6.250583 2.83022,-16.304719 3.96786,-22.342522 2.30762,-12.247252 2.35202,-12.648159 1.37548,-12.418024 -1.16082,0.273565 -15.23209,17.45185 -29.09443,35.518642 -4.26289,5.555839 -7.96928,10.385631 -8.23641,10.732871 -0.54445,0.707718 5.49549,0.761872 21.30275,0.191005 z"
       id="path4877"
       inkscape:connector-curvature="0"
       transform="matrix(0.26458333,0,0,0.26458333,0.88194809,26.566184)" />
    <path
       style="opacity:1;fill:#ffffff;stroke:#ffffff;stroke-width:0.50507629"
       d="m 707.08522,188.67788 c -1.1452,-0.90371 -1.38896,-1.49293 -1.38896,-3.35734 0,-4.44232 2.77566,-7.25647 7.16068,-7.25997 1.95184,-0.002 2.54439,0.22941 3.40926,1.32891 1.33058,1.69156 1.33144,3.8395 0.002,6.17657 -2.14087,3.76486 -6.48888,5.23819 -9.18345,3.11183 z"
       id="path4879"
       inkscape:connector-curvature="0"
       transform="matrix(0.26458333,0,0,0.26458333,0.88194809,26.566184)" />
    <path
       style="opacity:1;fill:#ffffff;stroke:#ffffff;stroke-width:0.50507629"
       d="m 660.23939,305.13555 c 0,-2.50925 2.01396,-12.85886 3.30429,-16.98049 1.74778,-5.58288 5.86012,-15.4772 13.11973,-31.56621 9.41181,-20.85881 12.87041,-29.76072 12.87041,-33.12651 0,-3.70296 -3.54574,-4.38964 -10.17451,-1.97044 -2.27847,0.83154 -4.18869,1.45657 -4.24494,1.38896 -0.0562,-0.0676 -0.23613,-0.5775 -0.39973,-1.13308 -0.26479,-0.8992 0.49114,-1.30856 6.88205,-3.72685 5.84269,-2.21084 12.05213,-4.77699 23.00458,-9.507 0.82215,-0.35506 0.47705,2.67949 -0.95933,8.43562 -2.24515,8.99714 -5.90397,18.37109 -17.54552,44.95179 -11.70827,26.73307 -12.72339,30.05084 -9.87901,32.28822 1.66322,1.30829 2.76026,1.31037 6.96001,0.0132 3.36269,-1.03862 4.33609,-0.98492 4.33609,0.23921 0,0.93867 -24.69849,11.90609 -26.81237,11.90609 -0.25396,0 -0.46175,-0.54562 -0.46175,-1.2125 z"
       id="path4883"
       inkscape:connector-curvature="0"
       transform="matrix(0.26458333,0,0,0.26458333,0.88194809,26.566184)" />
    <path
       style="opacity:1;fill:#ffffff;stroke:#ffffff;stroke-width:0.50507629"
       d="m 614.92145,304.8475 c -7.5484,-1.79342 -6.60215,-6.59666 7.81375,-39.66316 11.92627,-27.35591 22.3519,-51.7345 22.3519,-52.26617 0,-0.32538 -2.69027,-0.51431 -7.3236,-0.51431 -4.02799,0 -7.32013,-0.17046 -7.31587,-0.3788 0.0231,-1.13425 1.18635,-1.52751 5.29556,-1.79032 9.06568,-0.57983 10.98389,-2.04703 15.9478,-12.19817 1.9237,-3.93396 3.49764,-7.42456 3.49764,-7.7569 0,-0.39092 0.93614,-0.60782 2.65165,-0.61439 1.45841,-0.006 4.12049,-0.22244 5.91574,-0.48189 1.79525,-0.25946 3.30995,-0.42535 3.36601,-0.36866 0.056,0.0567 -1.89929,4.87606 -4.34519,10.70969 l -4.44708,10.6066 8.06048,0.13895 c 7.31756,0.12614 8.04505,0.21924 7.89317,1.01015 -0.14911,0.77643 -1.07971,0.88624 -8.55441,1.00939 l -8.3871,0.13818 -2.14156,4.66004 c -1.17785,2.56303 -5.61727,12.615 -9.86538,22.33772 -4.2481,9.72271 -9.91352,22.66585 -12.58981,28.76253 -8.18512,18.64597 -9.76708,24.62612 -7.33305,27.7205 2.73465,3.47653 9.34022,2.45854 18.08342,-2.78685 3.17771,-1.90643 4.11697,-2.04861 4.11697,-0.62318 0,0.79283 -5.09022,4.2614 -9.56199,6.51571 -4.61851,2.32829 -11.62978,4.85308 -15.57087,5.60713 -4.07902,0.78045 -5.09717,0.81092 -7.55818,0.22621 z"
       id="path4885"
       inkscape:connector-curvature="0"
       transform="matrix(0.26458333,0,0,0.26458333,0.88194809,26.566184)" />
    <path
       style="opacity:1;fill:#ffffff;stroke:#ffffff;stroke-width:0.50507629"
       d="m 520.64383,305.2933 c -2.44146,-1.92045 -3.02688,-3.75396 -2.96918,-9.29931 0.15548,-14.94171 9.78699,-32.75639 26.68811,-49.36295 6.6859,-6.56938 10.62931,-9.76001 18.90199,-15.29368 18.68607,-12.4993 37.81442,-19.32008 58.08377,-20.7115 5.66635,-0.38897 7.93371,0.16615 7.0932,1.73664 -0.28797,0.53809 -0.39907,1.30282 -0.24689,1.69941 0.15219,0.39659 -0.29604,2.01614 -0.99605,3.599 l -1.27276,2.87793 -3.17264,-0.40568 c -1.74494,-0.22313 -7.83196,-0.38427 -13.52669,-0.35809 -11.387,0.0523 -15.76226,0.71265 -24.92068,3.761 -19.93459,6.63515 -40.03224,24.21617 -49.34212,43.16349 -3.99929,8.13931 -5.25038,12.99469 -5.27081,20.45559 -0.018,6.57124 0.60102,8.40444 3.41788,10.12197 4.81143,2.93371 12.46617,-0.7115 23.21708,-11.05603 14.77722,-14.21864 26.77911,-33.88676 32.40826,-53.1091 0.85418,-2.91681 1.77965,-5.39553 2.05661,-5.50826 0.27697,-0.11273 1.05496,0.78122 1.72888,1.98656 2.61288,4.67328 1.91239,12.32167 -1.86889,20.40554 -9.16281,19.5889 -40.98448,49.32015 -59.18175,55.294 -4.34133,1.42518 -9.018,1.42668 -10.82732,0.004 z"
       id="path4887"
       inkscape:connector-curvature="0"
       transform="matrix(0.26458333,0,0,0.26458333,0.88194809,26.566184)" />
    <path
       style="opacity:1;fill:#ffffff;stroke:#ffffff;stroke-width:0.50507629"
       d="m 568.58192,303.71809 c 1.17493,-7.02718 5.0018,-18.06273 10.82293,-31.21015 l 3.91347,-8.83883 2.95927,-0.37396 c 2.59851,-0.32838 6.8018,-1.35495 8.99719,-2.1974 0.44261,-0.16985 -0.92684,3.58341 -3.45856,9.47884 -4.32067,10.06123 -6.62945,16.38926 -7.13647,19.55997 -0.22613,1.41412 -0.0378,2.14161 0.84489,3.26378 0.99494,1.26486 1.39233,1.41513 3.20262,1.21109 1.1367,-0.12812 3.81361,-1.08477 5.94868,-2.12587 3.77042,-1.83854 4.9543,-1.96733 4.9543,-0.53894 0,2.20956 -19.76184,11.17522 -29.97383,13.5987 l -1.43702,0.34102 z"
       id="path4889"
       inkscape:connector-curvature="0"
       transform="matrix(0.26458333,0,0,0.26458333,0.88194809,26.566184)" />
    <path
       style="opacity:1;fill:#ffffff;stroke:#ffffff;stroke-width:0.50507629"
       d="m 419.82309,369.31715 c 0,-0.091 0.93076,-2.30702 2.06835,-4.9245 7.66121,-17.62757 22.24841,-56.2489 38.07158,-100.79894 l 2.89704,-8.15662 2.24176,-0.62765 c 5.05807,-1.41618 7.98781,-4.48759 11.30191,-11.84846 1.8334,-4.07212 8.5742,-20.8137 8.5742,-21.29505 0,-0.40863 -17.26427,0.21303 -19.89197,0.71628 l -1.96175,0.37572 -3.00921,7.70241 c -2.75799,7.05937 -3.77806,8.66324 -4.63156,7.28225 -0.32024,-0.51816 8.64291,-24.35668 9.4601,-25.16022 0.36927,-0.3631 4.9192,-0.80033 12.19799,-1.17217 7.49103,-0.38269 11.7343,-0.79574 11.96217,-1.16444 0.19423,-0.31427 1.88526,-4.95751 3.75784,-10.31832 3.08885,-8.84268 3.51236,-9.74693 4.56504,-9.74693 1.13505,0 1.08768,0.21173 -2.17503,9.72272 -1.83445,5.34749 -3.43115,9.9748 -3.54823,10.2829 -0.14134,0.37196 1.42637,0.68051 4.66589,0.91831 14.78445,1.08524 22.51669,6.34149 24.73607,16.81517 2.86157,13.50433 -3.99062,34.72908 -16.59277,51.39625 -3.56611,4.71644 -10.86155,12.11486 -15.33032,15.54676 -8.3445,6.40834 -17.17724,9.2961 -22.11869,7.23143 -2.2412,-0.93643 -3.16563,-3.60075 -2.32828,-6.71042 l 0.56162,-2.08567 3.06192,1.57915 c 5.28699,2.72671 11.75489,2.35005 17.62932,-1.02667 3.53717,-2.03322 9.88975,-8.51157 13.21973,-13.48147 5.56719,-8.30885 10.62351,-20.39068 12.32818,-29.45758 1.21312,-6.45242 0.8284,-14.08713 -0.90011,-17.86271 -3.26326,-7.12789 -10.1526,-11.05545 -19.70584,-11.23416 l -3.56809,-0.0667 -9.28494,24.24366 c -8.88036,23.18729 -44.28323,113.93061 -46.12595,118.22833 -0.85139,1.98566 -1.05962,2.11916 -5.71184,3.6618 -4.3495,1.44227 -6.41613,1.90467 -6.41613,1.43558 z"
       id="path4891"
       inkscape:connector-curvature="0"
       transform="matrix(0.26458333,0,0,0.26458333,0.88194809,26.566184)" />
    <path
       style="opacity:1;fill:#ffffff;stroke:#ffffff;stroke-width:0.50507629"
       d="m 411.79055,305.73746 c -2.47635,-1.33017 -3.31842,-3.18646 -3.50875,-7.73486 -0.43154,-10.31257 3.0316,-20.09385 30.48581,-86.10381 19.56399,-47.03899 20.22349,-49.02443 17.10032,-51.48112 -1.64125,-1.29101 -3.08539,-1.30889 -7.10015,-0.0879 -3.24209,0.98599 -3.69847,0.93493 -3.67978,-0.41174 0.008,-0.55901 2.17394,-1.63365 7.19734,-3.57057 3.95243,-1.52397 10.4042,-4.15421 14.33727,-5.84496 l 7.15102,-3.07411 -0.23882,1.80436 c -1.64224,12.40737 -6.15578,24.77394 -24.83193,68.03647 -18.93425,43.86044 -27.36456,66.55649 -27.36456,73.67075 0,1.92815 0.26698,2.6208 1.47637,3.83019 2.52646,2.52645 5.47627,1.74664 12.79675,-3.38295 3.13383,-2.19594 4.13153,-2.67378 4.46937,-2.14057 0.23922,0.37754 0.43842,0.85156 0.44267,1.05336 0.0141,0.67147 -7.24522,6.45559 -12.54581,9.99624 -7.42906,4.96241 -13.36428,6.9575 -16.18712,5.44123 z"
       id="path4893"
       inkscape:connector-curvature="0"
       transform="matrix(0.26458333,0,0,0.26458333,0.88194809,26.566184)" />
    <path
       style="opacity:1;fill:#ffffff;stroke:#ffffff;stroke-width:0.50507629"
       d="m 316.28245,305.70754 c -4.24738,-2.10442 -4.74211,-11.80288 -1.16538,-22.84554 5.69713,-17.58906 22.68965,-37.83321 43.33925,-51.63249 18.27404,-12.21179 38.3601,-19.33255 58.14954,-20.61474 7.79068,-0.50478 8.68353,0.54152 5.75131,6.7397 l -1.50573,3.18283 -3.16583,-0.40491 c -1.7412,-0.22271 -7.71151,-0.39151 -13.26735,-0.37513 -10.87298,0.0321 -15.55512,0.70942 -24.27631,3.51199 -5.87784,1.88885 -16.44355,7.28966 -21.93817,11.214 -5.91153,4.2221 -16.85535,15.02199 -21.3356,21.05499 -6.61843,8.91222 -11.01224,19.24025 -12.01278,28.23708 -1.07607,9.67602 1.39805,14.50769 7.41488,14.48042 4.13348,-0.0187 9.1929,-2.94274 16.58959,-9.58767 11.7549,-10.5602 22.86785,-25.88086 29.57155,-40.76826 2.20602,-4.89906 5.99003,-15.78178 6.78605,-19.51647 0.29614,-1.38939 0.34581,-1.41155 1.27628,-0.56949 2.87069,2.59794 3.60667,10.74061 1.52887,16.9149 -1.46571,4.35541 -5.01282,10.98715 -8.11464,15.17128 -1.38122,1.86316 -2.5113,3.54871 -2.5113,3.74569 0,0.19697 -2.35464,3.01265 -5.23253,6.25705 -15.3664,17.32343 -34.66395,32.18972 -46.25149,35.63085 -3.25241,0.96586 -7.86374,1.04915 -9.63021,0.17392 z"
       id="path4895"
       inkscape:connector-curvature="0"
       transform="matrix(0.26458333,0,0,0.26458333,0.88194809,26.566184)" />
    <path
       style="opacity:1;fill:#ffffff;stroke:#ffffff;stroke-width:0.50507629"
       d="m 364.10016,301.92275 c 1.30094,-7.04214 7.96731,-24.97109 13.18497,-35.46053 l 1.37424,-2.76272 3.78807,-0.62652 c 2.08344,-0.34459 4.88552,-0.95959 6.22683,-1.36666 1.73405,-0.52626 2.36689,-0.56854 2.19002,-0.14629 -0.13681,0.32662 -1.71812,4.00311 -3.51401,8.16999 -7.27321,16.87551 -8.59435,21.81485 -6.41718,23.99201 1.54881,1.54881 4.18586,1.13891 9.22561,-1.43403 3.60635,-1.84115 3.96195,-1.93048 4.40316,-1.10607 0.55421,1.03555 0.0937,1.51426 -3.79203,3.94237 -5.31787,3.32298 -19.17259,8.85536 -26.06455,10.40793 l -1.32717,0.29897 z"
       id="path4897"
       inkscape:connector-curvature="0"
       transform="matrix(0.26458333,0,0,0.26458333,0.88194809,26.566184)" />
    <path
       style="opacity:1;fill:#ffffff;stroke:#ffffff;stroke-width:0.50507629"
       d="m 709.48433,306.99166 c -4.58285,-1.65279 -6.80642,-4.0194 -8.16581,-8.69112 -1.12239,-3.85723 -0.68398,-14.42325 0.8292,-19.98422 7.31705,-26.89044 35.22853,-56.86805 61.40162,-65.94682 5.70256,-1.97807 12.03347,-3.06471 16.84362,-2.89106 l 4.08563,0.14751 -7.69763,14.39467 c -6.25284,11.69288 -7.91093,14.42497 -8.83405,14.55607 -0.62503,0.0888 -1.13642,0.0447 -1.13642,-0.098 0,-0.14264 0.81271,-2.26083 1.80603,-4.70709 1.96965,-4.85068 2.67579,-8.99303 1.80907,-10.6125 -1.00387,-1.87575 -3.75354,-2.7323 -8.8044,-2.74265 -5.55171,-0.0114 -8.506,0.6301 -13.24599,2.87617 -8.42071,3.9902 -17.20069,14.46859 -24.73293,29.5173 -6.34966,12.68603 -9.43291,22.73318 -9.53229,31.06219 -0.11078,9.28445 3.39989,13.72328 11.28425,14.2676 14.01643,0.96767 30.04503,-11.89107 41.1955,-33.04856 1.34462,-2.55134 2.65496,-4.5089 2.91186,-4.35013 0.85229,0.52675 -0.0383,6.05335 -1.50057,9.3117 -1.96291,4.37393 -6.13611,9.85708 -11.83222,15.54629 -10.53828,10.52551 -21.31794,17.72418 -31.02711,20.71992 -5.03274,1.55285 -12.34568,1.86703 -15.65736,0.67268 z"
       id="path4899"
       inkscape:connector-curvature="0"
       transform="matrix(0.26458333,0,0,0.26458333,0.88194809,26.566184)" />
    <path
       style="opacity:1;fill:#ffffff;stroke:#ffffff;stroke-width:0.50507629"
       d="m 769.52818,187.88247 c 0.16522,-0.43054 5.68161,-9.57874 12.25865,-20.32932 26.52495,-43.35668 27.4492,-44.7155 30.85933,-45.36943 1.01493,-0.19463 1.6415,-0.11105 1.6415,0.21894 0,0.29354 -2.52924,3.89911 -5.62052,8.01237 -6.33432,8.42843 -19.68967,28.36121 -30.99495,46.25974 -4.16547,6.59479 -7.76951,11.99051 -8.00899,11.99051 -0.23947,0 -0.30023,-0.35227 -0.13502,-0.78281 z"
       id="path4901"
       inkscape:connector-curvature="0"
       transform="matrix(0.26458333,0,0,0.26458333,0.88194809,26.566184)" />
  </g>
</svg>
